<svg xmlns="http://www.w3.org/2000/svg" width="18" height="18" viewBox="0 0 18 18">
    <path data-name="Path 1219" d="M4.5 7.875h6.188V9H4.5zm0 2.813h7.313v1.125H4.5z"/>
    <path data-name="Path 1220" d="M15.75 2.25H2.25a1.125 1.125 0 0 0-1.125 1.125v11.25A1.125 1.125 0 0 0 2.25 15.75h13.5a1.125 1.125 0 0 0 1.125-1.125V3.375A1.125 1.125 0 0 0 15.75 2.25zm0 1.125V4.5H2.25V3.375zm-13.5 11.25v-9h13.5v9z"/>
    <path data-name="&lt;Transparent Rectangle&gt;" style="fill:none" d="M0 0h18v18H0z"/>
</svg>
