<svg xmlns="http://www.w3.org/2000/svg" width="22" height="22" viewBox="0 0 22 22">
    <path data-name="Path 65" d="m12.617 21.538-1.174-.675 2.7-4.722h4.047a1.349 1.349 0 0 0 1.349-1.349V6.7a1.349 1.349 0 0 0-1.349-1.349H4.7A1.349 1.349 0 0 0 3.349 6.7v8.095A1.349 1.349 0 0 0 4.7 16.142h6.071v1.349H4.7a2.7 2.7 0 0 1-2.7-2.7V6.7A2.7 2.7 0 0 1 4.7 4h13.489a2.7 2.7 0 0 1 2.7 2.7v8.095a2.7 2.7 0 0 1-2.7 2.7h-3.265z" transform="translate(-.444 -1.095)" style="fill:#283663"/>
    <path data-name="Path 66" d="M15.047 9H13.7v2.7H11v1.349h2.7v2.7h1.349v-2.7h2.7V11.7h-2.7z" transform="translate(-3.373 -2.722)" style="fill:#283663"/>
    <path data-name="&lt;Transparent Rectangle&gt;" style="fill:none" d="M0 0h22v22H0z"/>
</svg>
