<svg xmlns="http://www.w3.org/2000/svg" width="18" height="18" viewBox="0 0 18 18">
    <path data-name="Path 1211" d="M9 10.125a2.812 2.812 0 1 1 2.813-2.812A2.812 2.812 0 0 1 9 10.125zm0-4.5a1.688 1.688 0 1 0 1.687 1.688A1.688 1.688 0 0 0 9 5.625z"/>
    <path data-name="Path 1212" d="m9 16.875-4.745-5.6c-.027-.032-.2-.254-.2-.254a6.125 6.125 0 0 1-1.242-3.709 6.188 6.188 0 0 1 12.375 0 6.122 6.122 0 0 1-1.246 3.713s-.169.222-.194.252zm-4.042-6.528.161.211 3.882 4.578 3.887-4.584c.025-.031.157-.205.157-.206a5.007 5.007 0 0 0 1.018-3.033 5.063 5.063 0 1 0-10.125 0 5.009 5.009 0 0 0 1.02 3.034z"/>
    <path data-name="&lt;Transparent Rectangle&gt;" transform="rotate(-90 9 9)" style="fill:none" d="M0 0h18v18H0z"/>
</svg>
