<svg xmlns="http://www.w3.org/2000/svg" width="18" height="18" viewBox="0 0 18 18">
    <path data-name="Path 69" d="M17.715 16.8H2.582A.582.582 0 0 1 2 16.223V6.328a.582.582 0 0 1 .582-.582h3.76l1-1.484A.582.582 0 0 1 7.82 4h4.656a.582.582 0 0 1 .483.262l1 1.484h3.76a.582.582 0 0 1 .582.582v9.895a.582.582 0 0 1-.586.577zM3.164 15.641h13.969V6.91h-3.492a.582.582 0 0 1-.483-.262l-1-1.484H8.135l-1 1.484a.582.582 0 0 1-.483.262H3.164z" transform="translate(-1.149 -1.985)" style="fill:#242c44"/>
    <path data-name="Path 70" d="M13.492 16.984a3.492 3.492 0 1 1 3.492-3.492 3.492 3.492 0 0 1-3.492 3.492zm0-5.82a2.328 2.328 0 1 0 2.328 2.328 2.328 2.328 0 0 0-2.328-2.328z" transform="translate(-4.493 -4.493)" style="fill:#242c44"/>
    <path data-name="&lt;Transparent Rectangle&gt;" style="fill:none" d="M0 0h18v18H0z"/>
</svg>
