<svg xmlns="http://www.w3.org/2000/svg" width="26" height="26" viewBox="0 0 26 26">
    <path data-name="Path 69" d="M23.85 21.8H2.809A.809.809 0 0 1 2 20.995V7.237a.809.809 0 0 1 .809-.809h5.228l1.384-2.064A.809.809 0 0 1 10.093 4h6.474a.809.809 0 0 1 .672.364l1.384 2.064h5.227a.809.809 0 0 1 .809.809v13.758a.809.809 0 0 1-.809.805zM3.619 20.185h19.422V8.046h-4.856a.809.809 0 0 1-.672-.364L16.13 5.619h-5.6L9.146 7.682a.809.809 0 0 1-.672.364H3.619z" transform="translate(-.33 -.712)" style="fill:#242c44"/>
    <path data-name="Path 70" d="M14.856 19.711a4.856 4.856 0 1 1 4.856-4.856 4.856 4.856 0 0 1-4.856 4.856zm0-8.093a3.237 3.237 0 1 0 3.237 3.237 3.237 3.237 0 0 0-3.237-3.236z" transform="translate(-1.856 -1.856)" style="fill:#242c44"/>
    <path data-name="&lt;Transparent Rectangle&gt;" style="fill:none" d="M0 0h26v26H0z"/>
</svg>
