<svg xmlns="http://www.w3.org/2000/svg" width="18" height="18" viewBox="0 0 18 18">
    <path data-name="Path 72" d="M16.579 9.508A1.721 1.721 0 0 0 15.359 9h-.006a1.72 1.72 0 0 0-1.225.508l-2.831 2.831a1.73 1.73 0 0 0-1.72-1.606H5.533a2.892 2.892 0 0 0-2.888 2.888v.385L.912 16.315l.924.693L3.8 14.391v-.77a1.735 1.735 0 0 1 1.733-1.733h4.044a.578.578 0 0 1 0 1.155H7.266V14.2h2.846a2.294 2.294 0 0 0 1.634-.677l3.2-3.2a.574.574 0 0 1 .408-.169.578.578 0 0 1 .406.986l-4.283 4.283a1.721 1.721 0 0 1-1.226.508H6.112v1.155h4.143a2.869 2.869 0 0 0 2.042-.846l4.283-4.283a1.732 1.732 0 0 0 0-2.451z"/>
    <path data-name="Path 73" d="m12.226 4.712-2.071 1.977V.912H8.999v5.777L6.928 4.712l-.817.821 3.466 3.466 3.466-3.466z"/>
    <path data-name="&lt;Transparent Rectangle&gt;" style="fill:none" d="M0 0h18v18H0z"/>
</svg>
