<svg xmlns="http://www.w3.org/2000/svg" width="80.999" height="69" viewBox="0 0 80.999 69">
    <defs>
        <linearGradient id="rofd51t0pa" x1="-.064" y1="-.381" x2=".727" y2="1" gradientUnits="objectBoundingBox">
            <stop offset="0" stop-color="#496bd6"/>
            <stop offset="1" stop-color="#fff" stop-opacity="0"/>
        </linearGradient>
    </defs>
    <g transform="translate(-784 -603)">
        <circle data-name="Ellipse 32" cx="34.5" cy="34.5" r="34.5" transform="translate(784 603)" style="fill:url(#rofd51t0pa)"/>
        <g data-name="Group 97">
            <path data-name="Path 103" d="M-15781 2564.055h-10.468l7.346-14.324h9.182v7.346h-2.387z" style="fill:#f9b31c" transform="translate(16593.941 -1918.132)"/>
            <path data-name="Path 106" d="M-15785.41 2564.055h10.468l-7.346-14.324h-9.182v7.346h2.387z" transform="translate(16639.941 -1918.132)" style="fill:#f9b31c"/>
            <path data-name="Path 104" d="M-15772.187 2556.893v-21.854h24.058v21.854h-4.958v-14.141l-2.938-2.387h-9.366l-2.388 2.387v14.141z" style="fill:#f9b31c" transform="translate(16593.941 -1918.132)"/>
            <path data-name="Path 105" d="M-15765.025 2556.893v-12.121l2.2-2.02h4.591l2.388 2.02v12.121z" style="fill:#f9b31c" transform="translate(16593.941 -1918.132)"/>
            <path data-name="Path 102" d="M-15784.675 2559.28h48.482v30.852h-48.482z" style="fill:#48b349" transform="translate(16593.941 -1918.132)"/>
            <path data-name="Icon awesome-heart" d="M20.3 3.593a6.006 6.006 0 0 0-8.2.6l-.865.892-.865-.892a6.005 6.005 0 0 0-8.2-.6 6.306 6.306 0 0 0-.435 9.131l8.5 8.775a1.377 1.377 0 0 0 1.989 0l8.5-8.775a6.3 6.3 0 0 0-.43-9.131z" transform="translate(822.264 643.675)" style="fill:#fff"/>
        </g>
    </g>
</svg>
