<svg xmlns="http://www.w3.org/2000/svg" width="38" height="37" viewBox="0 0 38 37">
    <g data-name="Group 9787" transform="translate(-889 -308)">
        <rect data-name="Rectangle 599" width="38" height="37" rx="6" transform="translate(889 308)" style="fill:#fff;opacity:.46"/>
        <path data-name="Path 7" d="M914.047 317.625a5.128 5.128 0 0 1 3.666 1.537 5.344 5.344 0 0 1 0 7.5l-9.712 9.834-9.714-9.833a5.344 5.344 0 0 1 0-7.5 5.138 5.138 0 0 1 7.331 0L908 321.6l2.375-2.419a5.1 5.1 0 0 1 3.675-1.556m0-1.875a7 7 0 0 0-5.006 2.1L908 318.9l-1.041-1.05a7.022 7.022 0 0 0-10.013 0 7.237 7.237 0 0 0 0 10.144L908 339.188l11.053-11.194a7.237 7.237 0 0 0 0-10.144 7.022 7.022 0 0 0-5.006-2.1z"/>
        <path data-name="&lt;Transparent Rectangle&gt;" style="fill:none" d="M0 0h30v30H0z" transform="translate(893 312)"/>
    </g>
</svg>
