<svg xmlns="http://www.w3.org/2000/svg" width="18" height="18" viewBox="0 0 18 18">
    <path data-name="Path 1221" d="M6.668 16.397a.531.531 0 0 1-.319-.569l.967-6.3H4.75a.531.531 0 0 1-.531-.654l1.593-6.903a.531.531 0 0 1 .532-.409h5.313a.532.532 0 0 1 .521.648l-.919 4.134h2.524a.515.515 0 0 1 .42.829l-6.907 9.033a.531.531 0 0 1-.42.234.579.579 0 0 1-.208-.043zm3.263-8.99 1.063-4.782H6.769l-1.35 5.844h3.14l-.845 5.462 5.005-6.525z"/>
    <path data-name="&lt;Transparent Rectangle&gt;" transform="rotate(180 9 9)" style="fill:none" d="M0 0h18v18H0z"/>
</svg>
