<svg xmlns="http://www.w3.org/2000/svg" width="30" height="30" viewBox="0 0 30 30">
    <path data-name="&lt;Transparent Rectangle&gt;" style="fill:none" d="M0 0h30v30H0z"/>
    <path data-name="Path 55" d="M15.226 2.195a.92.92 0 0 0-1.132 0L1 12.405l1.132 1.432 1.6-1.249v11.28a1.826 1.826 0 0 0 1.822 1.822H23.78a1.826 1.826 0 0 0 1.82-1.821V12.6l1.6 1.248 1.132-1.432zm1.264 21.674h-3.644v-7.29h3.644zm1.822 0v-7.29a1.824 1.824 0 0 0-1.822-1.822h-3.644a1.824 1.824 0 0 0-1.822 1.822v7.29H5.556v-12.7l9.112-7.1 9.112 7.108v12.692z" transform="translate(.332 .243)" style="fill:#979797"/>
</svg>
