<svg xmlns="http://www.w3.org/2000/svg" width="22" height="22" viewBox="0 0 22 22">
    <path data-name="Path 133" d="M3.326 15.264H2V3.326A1.328 1.328 0 0 1 3.326 2h11.938v1.326H3.326z" transform="translate(-.285 -.285)" style="fill:#fff"/>
    <path data-name="Path 134" d="M19.99 14.979A1.99 1.99 0 1 0 18 12.99a1.99 1.99 0 0 0 1.99 1.989zm0-2.653a.663.663 0 1 1-.663.663.663.663 0 0 1 .663-.663z" transform="translate(-5.674 -3.316)" style="fill:#fff"/>
    <path data-name="Path 135" d="M20.927 7H8.326A1.328 1.328 0 0 0 7 8.326v12.6a1.328 1.328 0 0 0 1.326 1.326h12.6a1.328 1.328 0 0 0 1.326-1.326v-12.6A1.328 1.328 0 0 0 20.927 7zm0 13.927H8.326v-3.979l2.653-2.648 3.7 3.7a1.326 1.326 0 0 0 1.876 0l1.052-1.051 3.316 3.314zm0-2.539-2.378-2.378a1.326 1.326 0 0 0-1.876 0l-1.052 1.052-3.7-3.7a1.326 1.326 0 0 0-1.876 0l-1.719 1.71V8.326h12.6z" transform="translate(-1.969 -1.969)" style="fill:#fff"/>
    <path data-name="&lt;Transparent Rectangle&gt;" style="fill:none" d="M0 0h22v22H0z"/>
</svg>
