<svg xmlns="http://www.w3.org/2000/svg" width="16" height="16" viewBox="0 0 16 16">
    <path data-name="Path 75" d="M5 16h6a1 1 0 0 0 1-1v-1.5h-1V15H5V3h6v1.5h1V3a1 1 0 0 0-1-1H5a1 1 0 0 0-1 1v12a1 1 0 0 0 1 1z" transform="translate(-2 -1)" style="fill:#ee0707"/>
    <path data-name="Path 76" d="m15.293 15.293 1.793-1.793H10v-1h7.086l-1.793-1.793L16 10l3 3-3 3z" transform="translate(-5 -5)" style="fill:#ee0707"/>
    <path data-name="&lt;Transparent Rectangle&gt;" style="fill:none" d="M0 0h16v16H0z"/>
</svg>
