<svg xmlns="http://www.w3.org/2000/svg" width="76.736" height="69" viewBox="0 0 76.736 69">
    <defs>
        <linearGradient id="o73hqsprca" x1="-.064" y1="-.381" x2=".727" y2="1" gradientUnits="objectBoundingBox">
            <stop offset="0" stop-color="#496bd6"/>
            <stop offset="1" stop-color="#fff" stop-opacity="0"/>
        </linearGradient>
    </defs>
    <g transform="translate(-375 -603)">
        <circle data-name="Ellipse 33" cx="34.5" cy="34.5" r="34.5" transform="translate(375 603)" style="fill:url(#o73hqsprca)"/>
        <g data-name="Group 98" transform="translate(43.064 -59.145)">
            <circle data-name="Ellipse 34" cx="14.336" cy="14.336" r="14.336" transform="translate(369.227 677.145)" style="fill:#48b349"/>
            <path data-name="Path 107" d="M-13944.14 2491.58s3.037-10.819 11.2-9.87c1.709.475 6.643 5.315 13.191 5.125s12.623-4.745 13.192-5.125 7.592-.664 10.629 7.593 1.707 14.425-3.606 15.564-25.529.76-33.406.665-9.775-.854-11.864-6.359c-1.046-2.943.664-7.593.664-7.593z" transform="translate(14303 -1778.543)" style="fill:#48b349"/>
        </g>
    </g>
</svg>
