<svg xmlns="http://www.w3.org/2000/svg" width="30" height="30" viewBox="0 0 30 30">
    <path data-name="Path 139" d="M7.441 18a5.441 5.441 0 1 0 5.441 5.441A5.457 5.457 0 0 0 7.441 18zm0 9.068a3.627 3.627 0 1 1 3.627-3.627 3.638 3.638 0 0 1-3.627 3.627z" transform="translate(.306 -1.186)" style="fill:#283663"/>
    <path data-name="Path 140" d="M27.949 21.949h-1.814A18.189 18.189 0 0 0 8 3.814V2a20.007 20.007 0 0 1 19.949 19.949z" transform="translate(-.254 .306)" style="fill:#283663"/>
    <path data-name="Path 141" d="M20.695 22.695h-1.814A10.913 10.913 0 0 0 8 11.814V10a12.732 12.732 0 0 1 12.695 12.695z" transform="translate(-.254 -.44)" style="fill:#283663"/>
    <path style="fill:none" d="M0 0h30v30H0z"/>
</svg>
