<svg xmlns="http://www.w3.org/2000/svg" width="100" height="87" viewBox="0 0 100 87">
    <g data-name="Group 9826" transform="translate(-1240.444 -182.771)">
        <g data-name="Rectangle 639" transform="translate(1247.444 182.771)" style="stroke-width:2px;fill:#fff;stroke:#283663">
            <rect width="87" height="87" rx="8" style="stroke:none"/>
            <rect x="1" y="1" width="85" height="85" rx="7" style="fill:none"/>
        </g>
        <rect data-name="Rectangle 640" width="100" height="9" rx="2" transform="translate(1240.444 198.771)" style="fill:#d9d9d9"/>
        <path data-name="Rectangle 641" transform="translate(1240.444 201.771)" style="fill:#283663" d="M0 0h100v3H0z"/>
        <path data-name="Path 1250" d="M2190.472 13452.4s.929-5.02 5.764-5.02 5.392 5.02 5.392 5.02" transform="translate(-917.784 -13227.18)" style="stroke-width:3px;stroke:#212121;fill:none"/>
        <path data-name="Path 1251" d="M2190.472 13452.4s.929-5.02 5.764-5.02 5.392 5.02 5.392 5.02" transform="translate(-893.719 -13227.18)" style="stroke-width:3px;stroke:#212121;fill:none"/>
        <path data-name="Path 1252" d="M2215.5 13498h11.473" transform="translate(-931.229 -13254.376)" style="stroke:#212121;fill:none;stroke-width:2px"/>
        <circle data-name="Ellipse 42" cx="1.5" cy="1.5" r="1.5" transform="translate(1264.444 232.771)" style="fill:#ffc7c7"/>
        <ellipse data-name="Ellipse 43" cx="2" cy="1.5" rx="2" ry="1.5" transform="translate(1312.444 232.771)" style="fill:#ffc7c7"/>
    </g>
</svg>
