<svg xmlns="http://www.w3.org/2000/svg" width="21.17" height="23.453" viewBox="0 0 21.17 23.453">
    <path data-name="Path 1203" d="M293.619 380.332h9.844c.272 0 .492.383.492.655a.492.492 0 0 1-.492.492h-9.844a.492.492 0 0 1-.492-.492c0-.272.22-.655.492-.655zm0-4.915h9.844c.272 0 .492.376.492.647a.492.492 0 0 1-.492.492h-9.844a.492.492 0 0 1-.492-.492c0-.271.22-.647.492-.647zm0-4.945h9.844a.513.513 0 0 1 .492.516c0 .272-.22.647-.492.647h-9.844c-.272 0-.492-.375-.492-.647a.513.513 0 0 1 .492-.515z" transform="translate(-287.696 -363.075)" style="fill:#636363"/>
    <path data-name="Path 1204" d="M390 87.578h-3.938a1.725 1.725 0 0 1-1.723-1.723v-1.476a1.725 1.725 0 0 1 1.723-1.723H390a1.725 1.725 0 0 1 1.723 1.723v1.477A1.725 1.725 0 0 1 390 87.578zm-3.938-3.764c-.407 0-.573.158-.573.565v1.477c0 .407.166.6.573.6H390c.407 0 .616-.191.616-.6v-1.477c0-.407-.209-.565-.616-.565z" transform="translate(-377.511 -82.656)" style="fill:#636363"/>
    <path data-name="Path 1205" d="M179.215 167.5h-12.3a4.192 4.192 0 0 1-4.436-3.882v-13.74a4.191 4.191 0 0 1 4.437-3.878h.958a.471.471 0 0 1 .492.447.585.585 0 0 1-.492.571h-.958a3.031 3.031 0 0 0-3.318 2.864v13.74c0 1.648 1.415 2.8 3.318 2.8h12.3c1.9 0 3.344-1.156 3.344-2.8v-13.74a3.055 3.055 0 0 0-3.344-2.864h-.966a.585.585 0 0 1-.492-.571.471.471 0 0 1 .492-.447h.966a4.192 4.192 0 0 1 4.436 3.882v13.74a4.191 4.191 0 0 1-4.437 3.878z" transform="translate(-162.48 -144.051)" style="fill:#636363"/>
</svg>
