<svg xmlns="http://www.w3.org/2000/svg" width="30" height="30" viewBox="0 0 30 30">
    <path data-name="Rectangle 232" transform="translate(7.748 18.047)" style="fill:#979797" d="M0 0h5.15v2.575H0z"/>
    <path data-name="Rectangle 233" transform="translate(7.748 21.909)" style="fill:#979797" d="M0 0h10.299v1.287H0z"/>
    <path data-name="Path 142" d="M26.127 4H6.012A2.014 2.014 0 0 0 4 6.012v20.115a2.014 2.014 0 0 0 2.012 2.012h20.115a2.014 2.014 0 0 0 2.012-2.012V6.012A2.014 2.014 0 0 0 26.127 4zm-8.046 2.012v4.023h-4.023V6.012zM6.012 26.127V6.012h6.035v6.035h8.046V6.012h6.035v20.115z" transform="translate(-.601 -.601)" style="fill:#979797"/>
    <path data-name="&lt;Transparent Rectangle&gt;" style="fill:none" d="M0 0h30v30H0z"/>
</svg>
