<svg xmlns="http://www.w3.org/2000/svg" width="20" height="20" viewBox="0 0 20 20">
    <path data-name="Path 8" d="M22.078 9.444a.741.741 0 0 0-.563-.259h-4.444V6.222A2.222 2.222 0 0 0 14.849 4H10.4a2.222 2.222 0 0 0-2.218 2.222v2.963H3.738a.741.741 0 0 0-.738.852l1.393 9A1.481 1.481 0 0 0 5.871 20.3H19.4a1.481 1.481 0 0 0 1.481-1.259l1.378-9a.741.741 0 0 0-.181-.597zM9.664 6.222a.741.741 0 0 1 .741-.741h4.444a.741.741 0 0 1 .741.741v2.963H9.664zM19.4 18.814H5.856L4.6 10.666h16.048z" transform="translate(-2.627 -2.75)" style="fill:#fff"/>
    <path data-name="&lt;Transparent Rectangle&gt;" style="fill:none" d="M0 0h20v20H0z"/>
</svg>
