<svg xmlns="http://www.w3.org/2000/svg" width="24" height="24" viewBox="0 0 24 24">
    <defs>
        <clipPath id="jjccmycsta">
            <path data-name="&lt;Transparent Rectangle&gt;" transform="translate(-.066 -.066)" style="fill:none" d="M0 0h24v24H0z"/>
        </clipPath>
    </defs>
    <g data-name="Mask Group 9" style="clip-path:url(#jjccmycsta)" transform="translate(.066 .066)">
        <path data-name="Rectangle 150" transform="translate(1.434 11.934)" style="fill:#283663" d="M0 0h3.75v10.5H0z"/>
        <path data-name="Path 67" d="M17.25 22.5H6.75V11.4l2.282-3.425.634-4.437A1.507 1.507 0 0 1 11.15 2.25h.1A2.252 2.252 0 0 1 13.5 4.5V9h6a3 3 0 0 1 3 3v5.25a5.256 5.256 0 0 1-5.25 5.25z" style="fill:#283663" transform="translate(-.066 -.066)"/>
        <path data-name="&lt;Transparent Rectangle&gt;" style="fill:none" d="M0 0h24v24H0z" transform="translate(-.066 -.066)"/>
    </g>
</svg>
