<svg xmlns="http://www.w3.org/2000/svg" width="24" height="24" viewBox="0 0 24 24">
    <path data-name="Path 64" d="M19.464 9.014h-4.479V4.535a2.242 2.242 0 0 0-2.235-2.239h-1.6a1.5 1.5 0 0 0-1.478 1.282L9.05 7.996l-2.675 4H1.55v10.45h15.674a5.231 5.231 0 0 0 5.226-5.222v-5.228a2.989 2.989 0 0 0-2.986-2.982zM6.028 20.956H3.043v-7.46h2.985zm14.928-3.732a3.736 3.736 0 0 1-3.732 3.732h-9.7v-7.984l2.954-4.431.672-4.752h1.6a.747.747 0 0 1 .746.746v5.971h5.971a1.5 1.5 0 0 1 1.489 1.49z"/>
    <path data-name="&lt;Transparent Rectangle&gt;" style="fill:none" d="M0 0h24v24H0z"/>
</svg>
