<svg xmlns="http://www.w3.org/2000/svg" width="30" height="30" viewBox="0 0 30 30">
    <path data-name="&lt;Transparent Rectangle&gt;" style="fill:none" d="M0 0h30v30H0z"/>
    <g data-name="Group 9725">
        <path data-name="Ellipse 36 - Outline" d="M14.5 2.2a12.481 12.481 0 0 0-8.725 3.483 11.461 11.461 0 0 0 0 16.634A12.481 12.481 0 0 0 14.5 25.8a12.481 12.481 0 0 0 8.725-3.483 11.461 11.461 0 0 0 0-16.634A12.481 12.481 0 0 0 14.5 2.2m0-2.2A14.257 14.257 0 0 1 29 14a14.257 14.257 0 0 1-14.5 14A14.257 14.257 0 0 1 0 14 14.257 14.257 0 0 1 14.5 0z" transform="translate(1 1)" style="fill:#979797"/>
        <path data-name="Path 1214" d="M9.5-3.168c0-2.224-1.936-2.784-3.712-3.216v-3.232a6.621 6.621 0 0 1 2.592.864l.656-1.616a6.858 6.858 0 0 0-3.248-.976v-1.776H4.48v1.808c-2.5.24-3.68 1.664-3.68 3.3 0 2.224 1.9 2.8 3.68 3.232v3.2a6.146 6.146 0 0 1-3.2-1.22L.56-1.184A7 7 0 0 0 4.48.144V1.92h1.312V.128C8.3-.128 9.5-1.536 9.5-3.168zM2.864-8.112c0-.7.48-1.28 1.616-1.456v2.848c-.928-.272-1.616-.624-1.616-1.392zm2.928 6.5v-2.836c.96.272 1.664.64 1.664 1.424 0 .688-.496 1.232-1.664 1.408z" transform="translate(11 21)" style="fill:#979797"/>
    </g>
</svg>
