<svg xmlns="http://www.w3.org/2000/svg" width="69.984" height="70.138" viewBox="0 0 69.984 70.138">
    <g data-name="Group 29">
        <path data-name="Path 34" d="M-973.093 1395.415c0 .159-10.04 13.387-19.443-25.021s39.045-32.989 42.392-21.2 3.506 35.224-22.949 46.221z" transform="translate(1009.132 -1336.433)" style="fill:#e6effc"/>
        <path data-name="Path 35" d="m-978.83 1382.028 7.809-20.4 6.056 2.072s-2.231 3.506 1.275 4.3" transform="translate(1009.132 -1336.433)" style="stroke:#283663;fill:none;stroke-linecap:round"/>
        <path data-name="Path 36" d="m-973.87 1370.14 3.2 1.189" transform="translate(1009.132 -1336.433)" style="stroke:#283663;fill:none;stroke-linecap:round"/>
        <path data-name="Path 37" d="m-982.814 1390 18.965-18.327 16.415 16.255-18.966 18.642z" transform="translate(1009.132 -1336.433)" style="fill:#026cde"/>
        <path data-name="Path 38" d="m-961.937 1370.075 6.693-7.49 6.693 6.529s-2.391 2.555-.956 3.83 3.825-1.116 3.825-1.116l6.534 6.853-6.534 7.49z" transform="translate(1009.132 -1336.433)" style="fill:#026cde"/>
        <path data-name="Path 39" d="m-970.384 1390.634 8.606-8.287" transform="translate(1009.132 -1336.433)" style="stroke:#fff;fill:none;stroke-linecap:round"/>
        <path data-name="Path 40" d="m-963.69 1391.43 5.9-6.056" transform="translate(1009.132 -1336.433)" style="stroke:#fff;fill:none;stroke-linecap:round"/>
        <path data-name="Path 41" d="M-982.017 1398.6s-26.614-9.243-26.614-27.252v-27.411s8.287 6.375 14.5 3.984 10.2-8.287 12.112-10.677 6.534 9.721 14.024 10.677 10.2-3.028 12.271-3.984.956 15.14.956 15.14" transform="translate(1009.132 -1336.433)" style="stroke:#283663;fill:none;stroke-linecap:round"/>
        <path data-name="Path 42" d="M-1008.632 1360.354h26.3" transform="translate(1009.132 -1336.433)" style="stroke:#283663;fill:none;stroke-linecap:round"/>
        <path data-name="Path 43" d="M-1007.2 1375.334h14.662" transform="translate(1009.132 -1336.433)" style="stroke:#283663;fill:none;stroke-linecap:round"/>
    </g>
</svg>
