<svg xmlns="http://www.w3.org/2000/svg" width="24" height="24" viewBox="0 0 24 24">
    <path data-name="Path 31" d="M23.137 11.747a12.224 12.224 0 0 0-4.272-5.553l3.57-3.578-1.05-1.051-19.82 19.82 1.051 1.051 3.8-3.794a11.464 11.464 0 0 0 5.583 1.558 12.441 12.441 0 0 0 11.136-7.946.745.745 0 0 0 .002-.507zm-11.136 5.1a4.815 4.815 0 0 1-2.855-.939l1.364-1.349a2.982 2.982 0 0 0 4.047-4.047l1.349-1.347A4.838 4.838 0 0 1 12 16.85z"/>
    <path data-name="Path 32" d="m3.45 16.331 3.727-3.73a5.1 5.1 0 0 1-.022-.6A4.853 4.853 0 0 1 12 7.156a5.1 5.1 0 0 1 .589.037l2.818-2.81A10.726 10.726 0 0 0 12 3.801 12.441 12.441 0 0 0 .864 11.747a.745.745 0 0 0 0 .507 11.822 11.822 0 0 0 2.586 4.077z"/>
    <path data-name="&lt;Transparent Rectangle&gt;" style="fill:none" d="M0 0h24v24H0z"/>
</svg>
