<svg xmlns="http://www.w3.org/2000/svg" width="30" height="30" viewBox="0 0 30 30">
    <path data-name="Path 7" d="M21.91 4.21a5.86 5.86 0 0 1 4.193 1.758 6.106 6.106 0 0 1 0 8.57l-11.1 11.236-11.1-11.237a6.106 6.106 0 0 1 0-8.57 5.87 5.87 0 0 1 8.377 0l2.723 2.785 2.71-2.764a5.827 5.827 0 0 1 4.2-1.778m0-2.142a8 8 0 0 0-5.72 2.4l-1.19 1.2-1.192-1.2a8.023 8.023 0 0 0-11.441 0 8.27 8.27 0 0 0 0 11.591l12.633 12.79 12.63-12.79a8.27 8.27 0 0 0 0-11.591 8.023 8.023 0 0 0-5.723-2.4z"/>
    <path data-name="&lt;Transparent Rectangle&gt;" style="fill:none" d="M0 0h30v30H0z"/>
</svg>
