<svg xmlns="http://www.w3.org/2000/svg" width="30" height="30" viewBox="0 0 30 30">
    <path data-name="Path 8" d="M29.711 9.855a1.153 1.153 0 0 0-.876-.4h-6.918V4.84a3.459 3.459 0 0 0-3.458-3.459h-6.918A3.459 3.459 0 0 0 8.082 4.84v4.611H1.166a1.153 1.153 0 0 0-1.155 1.33l2.169 14a2.306 2.306 0 0 0 2.306 1.96h21.051a2.306 2.306 0 0 0 2.306-1.96l2.144-14a1.153 1.153 0 0 0-.276-.926zM10.389 4.84a1.153 1.153 0 0 1 1.152-1.153h6.917a1.153 1.153 0 0 1 1.153 1.153v4.611h-9.222zm15.149 19.6H4.463L2.511 11.757h24.975z"/>
    <path data-name="&lt;Transparent Rectangle&gt;" style="fill:none" d="M0 0h30v30H0z"/>
</svg>
