<svg xmlns="http://www.w3.org/2000/svg" width="30" height="30" viewBox="0 0 30 30">
    <path data-name="Path 59" d="m28.006 10.2-1.857-5.568A.929.929 0 0 0 25.22 4H4.786a.929.929 0 0 0-.929.632L2 10.2a1.105 1.105 0 0 0 0 .3v5.573a.929.929 0 0 0 .928.927h.929v9.288h1.858V17h5.573v9.288h14.861V17h.929a.929.929 0 0 0 .929-.929V10.5a1.105 1.105 0 0 0 0-.3zm-3.715 14.23H13.145V17h11.146zm1.858-9.288h-3.715v-3.711h-1.858v3.715h-4.644v-3.715h-1.858v3.715H9.43v-3.715H7.572v3.715H3.857v-4.5l1.6-4.793h19.1l1.6 4.793z" transform="translate(-.003 -.146)" style="fill:#979797"/>
    <path data-name="&lt;Transparent Rectangle&gt;" style="fill:none" d="M0 0h30v30H0z"/>
</svg>
