<svg xmlns="http://www.w3.org/2000/svg" width="40" height="40" viewBox="0 0 40 40">
    <g transform="translate(-1779.5 -921.25)">
        <circle data-name="Ellipse 9" cx="20" cy="20" r="20" transform="translate(1779.5 921.25)" style="fill:#f5f5f5"/>
        <path data-name="Icon awesome-instagram" d="M1799.502 936.712a4.7 4.7 0 1 0 4.7 4.7 4.688 4.688 0 0 0-4.7-4.7zm0 7.748a3.053 3.053 0 1 1 3.053-3.053 3.058 3.058 0 0 1-3.053 3.053zm5.983-7.94a1.1 1.1 0 1 1-1.1-1.1 1.093 1.093 0 0 1 1.1 1.099zm3.11 1.112a5.42 5.42 0 0 0-1.479-3.839 5.456 5.456 0 0 0-3.838-1.481c-1.512-.086-6.044-.086-7.556 0a5.448 5.448 0 0 0-3.838 1.477 5.438 5.438 0 0 0-1.479 3.838c-.086 1.512-.086 6.044 0 7.556a5.42 5.42 0 0 0 1.479 3.837 5.463 5.463 0 0 0 3.837 1.479c1.512.086 6.044.086 7.556 0a5.42 5.42 0 0 0 3.837-1.479 5.456 5.456 0 0 0 1.479-3.837c.086-1.512.086-6.04 0-7.552zm-1.949 9.174a3.091 3.091 0 0 1-1.741 1.741c-1.206.478-4.066.368-5.4.368s-4.2.106-5.4-.368a3.091 3.091 0 0 1-1.741-1.741c-.478-1.206-.368-4.066-.368-5.4s-.107-4.194.367-5.394a3.091 3.091 0 0 1 1.741-1.744c1.206-.478 4.066-.368 5.4-.368s4.2-.106 5.4.368a3.091 3.091 0 0 1 1.742 1.744c.478 1.206.368 4.066.368 5.4s.106 4.192-.368 5.394z"/>
    </g>
</svg>
