<svg xmlns="http://www.w3.org/2000/svg" width="40" height="40" viewBox="0 0 40 40">
    <g transform="translate(-1727.5 -921.25)">
        <circle data-name="Ellipse 8" cx="20" cy="20" r="20" transform="translate(1727.5 921.25)" style="fill:#f5f5f5"/>
        <path data-name="Icon awesome-twitter" d="M1757.458 936.814c.014.2.014.4.014.6a13.059 13.059 0 0 1-13.146 13.155 13.06 13.06 0 0 1-7.1-2.08 9.56 9.56 0 0 0 1.116.057 9.256 9.256 0 0 0 5.738-1.977 4.63 4.63 0 0 1-4.321-3.2 5.828 5.828 0 0 0 .873.072 4.888 4.888 0 0 0 1.216-.157 4.622 4.622 0 0 1-3.706-4.538v-.058a4.654 4.654 0 0 0 2.084.587 4.628 4.628 0 0 1-1.426-6.181 13.136 13.136 0 0 0 9.526 4.836 5.217 5.217 0 0 1-.111-1.061 4.626 4.626 0 0 1 8-3.162 9.1 9.1 0 0 0 2.931-1.114 4.609 4.609 0 0 1-2.032 2.547 9.265 9.265 0 0 0 2.661-.715 9.934 9.934 0 0 1-2.318 2.389z"/>
    </g>
</svg>
